# xmcd
#
# Track frame offsets:
# 150
# 24794
# 44781
# 66151
# 80803
# 101075
# 124407
# 148024
# 165536
# 178128
# 193777
# 220389
# 238764
# 260160
# 279685
# 297415
# 323651
#
# Disc length: 4706 seconds
#
# Revision: 1
# Processed by: cddbd v1.4PL0 Copyright (c) Steve Scherf et al.
# Submitted via: Easy CD Ripper v2.14
#
DISCID=17126011
DTITLE=Varios - Super Bailables del año
DYEAR=2001
DGENRE=Latin
TTITLE0=Tropimosaico - Victor Manuelle and Joe Arroyo
TTITLE1=Busco alguien que me quiera - El Afinaito
TTITLE2=Tuyo - Rey Ruiz
TTITLE3=Pegame tu vicio - Eddy Herrera
TTITLE4=Me da lo mismo - Victor Manuelle
TTITLE5=La tortuga - Joe Arroyo
TTITLE6=Por tu primer beso - Jorge Celedon and Jimmy Zambrano
TTITLE7=Guajiro Natural - Polo Montañez
TTITLE8=El Cuartetazo - Tropican Show
TTITLE9=El gato Volador - Cuentos de la cripta
TTITLE10=Diomedes Diaz Mix - Diomedes Diaz y amigos
TTITLE11=Escombros - Orq. la suprema Corte
TTITLE12=La sangre llama - Los hermanos Zuleta
TTITLE13=La voladora - El Sayayin
TTITLE14=Pero no me ama - Gilberto Santa Rosa
TTITLE15=Afortunado - Boris Garcia
TTITLE16=Bonus Track La voladora - El Sayayin
EXTD=
EXTT0=Amaneciendo - Las Tapas - El Guayabo de la Ye
EXTT1=
EXTT2=
EXTT3=
EXTT4=
EXTT5=
EXTT6=
EXTT7=
EXTT8=
EXTT9=
EXTT10=
EXTT11=
EXTT12=
EXTT13=
EXTT14=
EXTT15=
EXTT16=
PLAYORDER=
